<svg width="96" height="29" viewBox="0 0 96 29" fill="none" xmlns="http://www.w3.org/2000/svg">
<g clip-path="url(#clip0_5_85)">
<path d="M17.707 11.4102C17.707 12.6836 17.5547 13.8516 17.25 14.9141C16.9531 15.9688 16.4922 16.8828 15.8672 17.6562C15.2422 18.4297 14.4492 19.0352 13.4883 19.4727L17.6133 24.0781H12.9609L9.82031 20.2344C9.76562 20.2344 9.71875 20.2344 9.67969 20.2344C9.64062 20.2344 9.59766 20.2344 9.55078 20.2344C8.15234 20.2344 6.94141 20.0273 5.91797 19.6133C4.89453 19.1914 4.04688 18.5898 3.375 17.8086C2.71094 17.0273 2.21484 16.0938 1.88672 15.0078C1.55859 13.9219 1.39453 12.7148 1.39453 11.3867C1.39453 9.61328 1.68359 8.07031 2.26172 6.75781C2.84766 5.4375 3.74609 4.41406 4.95703 3.6875C6.16797 2.96094 7.70703 2.59766 9.57422 2.59766C11.4336 2.59766 12.9609 2.96094 14.1562 3.6875C15.3594 4.41406 16.25 5.4375 16.8281 6.75781C17.4141 8.07812 17.707 9.62891 17.707 11.4102ZM5.20312 11.4102C5.20312 12.6055 5.35156 13.6367 5.64844 14.5039C5.95312 15.3633 6.42578 16.0273 7.06641 16.4961C7.70703 16.957 8.53516 17.1875 9.55078 17.1875C10.582 17.1875 11.418 16.957 12.0586 16.4961C12.6992 16.0273 13.1641 15.3633 13.4531 14.5039C13.75 13.6367 13.8984 12.6055 13.8984 11.4102C13.8984 9.61328 13.5625 8.19922 12.8906 7.16797C12.2188 6.13672 11.1133 5.62109 9.57422 5.62109C8.55078 5.62109 7.71484 5.85547 7.06641 6.32422C6.42578 6.78516 5.95312 7.44922 5.64844 8.31641C5.35156 9.17578 5.20312 10.207 5.20312 11.4102ZM42.5447 2.86719L38.1853 20H34.0486L31.7283 11C31.6814 10.8281 31.6189 10.5664 31.5408 10.2148C31.4627 9.86328 31.3806 9.48047 31.2947 9.06641C31.2087 8.64453 31.1306 8.25 31.0603 7.88281C30.9978 7.50781 30.9548 7.21094 30.9314 6.99219C30.908 7.21094 30.8611 7.50391 30.7908 7.87109C30.7283 8.23828 30.6541 8.62891 30.5681 9.04297C30.49 9.45703 30.4119 9.84375 30.3337 10.2031C30.2556 10.5625 30.1931 10.8359 30.1462 11.0234L27.8377 20H23.7127L19.3416 2.86719H22.9158L25.1072 12.2188C25.1697 12.5 25.24 12.8359 25.3181 13.2266C25.4041 13.6172 25.4861 14.0273 25.5642 14.457C25.6502 14.8789 25.7244 15.2891 25.7869 15.6875C25.8572 16.0781 25.908 16.418 25.9392 16.707C25.9783 16.4102 26.0291 16.0664 26.0916 15.6758C26.1541 15.2773 26.2205 14.875 26.2908 14.4688C26.3689 14.0547 26.447 13.6719 26.5252 13.3203C26.6033 12.9688 26.6736 12.6836 26.7361 12.4648L29.2322 2.86719H32.6658L35.1619 12.4648C35.2166 12.6758 35.2791 12.9609 35.3494 13.3203C35.4275 13.6719 35.5056 14.0547 35.5837 14.4688C35.6619 14.8828 35.7322 15.2891 35.7947 15.6875C35.865 16.0781 35.9158 16.418 35.947 16.707C36.0017 16.3164 36.0759 15.8438 36.1697 15.2891C36.2712 14.7266 36.3767 14.168 36.4861 13.6133C36.6033 13.0586 36.7048 12.5938 36.7908 12.2188L38.9705 2.86719H42.5447ZM54.8081 20H44.9409V2.86719H54.8081V5.84375H48.5737V9.60547H54.3745V12.582H48.5737V17H54.8081V20ZM63.6263 2.86719C65.1809 2.86719 66.4622 3.05469 67.47 3.42969C68.4856 3.80469 69.2395 4.37109 69.7317 5.12891C70.2239 5.88672 70.47 6.84375 70.47 8C70.47 8.78125 70.3216 9.46484 70.0247 10.0508C69.7278 10.6367 69.3372 11.1328 68.8528 11.5391C68.3684 11.9453 67.845 12.2773 67.2825 12.5352L72.3216 20H68.2903L64.2005 13.4258H62.2669V20H58.6341V2.86719H63.6263ZM63.3684 5.84375H62.2669V10.4727H63.4388C64.6419 10.4727 65.5013 10.2734 66.0169 9.875C66.5403 9.46875 66.802 8.875 66.802 8.09375C66.802 7.28125 66.5208 6.70312 65.9583 6.35938C65.4036 6.01562 64.5403 5.84375 63.3684 5.84375ZM72.5616 6.89844H76.4756L78.9483 14.2695C79.0264 14.5039 79.0928 14.7422 79.1475 14.9844C79.2022 15.2266 79.2491 15.4766 79.2881 15.7344C79.3272 15.9922 79.3584 16.2617 79.3819 16.543H79.4522C79.4991 16.1211 79.5616 15.7266 79.6397 15.3594C79.7256 14.9922 79.8311 14.6289 79.9561 14.2695L82.3819 6.89844H86.2139L80.6709 21.6758C80.335 22.582 79.8975 23.3359 79.3584 23.9375C78.8194 24.5469 78.1983 25.0039 77.4952 25.3086C76.7998 25.6133 76.0342 25.7656 75.1983 25.7656C74.792 25.7656 74.4405 25.7422 74.1436 25.6953C73.8467 25.6562 73.5928 25.6133 73.3819 25.5664V22.7305C73.5459 22.7695 73.753 22.8047 74.003 22.8359C74.253 22.8672 74.5147 22.8828 74.7881 22.8828C75.2881 22.8828 75.7178 22.7773 76.0772 22.5664C76.4366 22.3555 76.7373 22.0703 76.9795 21.7109C77.2217 21.3594 77.4131 20.9727 77.5537 20.5508L77.7647 19.9062L72.5616 6.89844Z" fill="white"/>
</g>
<defs>
<clipPath id="clip0_5_85">
<rect width="96" height="32" fill="white"/>
</clipPath>
</defs>
</svg>
